<?xml version="1.0" encoding="UTF-8"?>
<!-- Generator: visioncortex VTracer 0.6.12 -->
<svg version="1.1" xmlns="http://www.w3.org/2000/svg" width="1118" height="704">
<path d="M0 0 C368.94 0 737.88 0 1118 0 C1118 232.32 1118 464.64 1118 704 C749.06 704 380.12 704 0 704 C0 471.68 0 239.36 0 0 Z " fill="#F6F8FD" transform="translate(0,0)"/>
<path d="M0 0 C368.94 0 737.88 0 1118 0 C1118 0.66 1118 1.32 1118 2 C1117.525 2 1117.525 2 1115.119 2.002 C945.931 2.101 945.931 2.101 804.744 2.201 C803.184 2.202 801.624 2.204 800.064 2.205 C767.321 2.229 734.578 2.253 701.835 2.278 C685.388 2.291 668.941 2.303 652.493 2.316 C650.012 2.317 647.531 2.319 645.05 2.321 C606.836 2.35 568.622 2.377 530.407 2.399 C529.996 2.399 529.996 2.399 527.917 2.401 C514.664 2.408 501.412 2.416 488.16 2.423 C449.999 2.445 411.838 2.468 373.677 2.497 C372.893 2.498 372.108 2.498 371.3 2.499 C354.083 2.512 336.865 2.526 319.648 2.541 C312.72 2.547 305.793 2.552 298.866 2.558 C298.487 2.558 298.487 2.558 296.568 2.56 C272.122 2.58 247.675 2.594 223.228 2.604 C198.611 2.615 173.994 2.632 149.377 2.657 C145.979 2.661 142.58 2.664 139.182 2.667 C138.515 2.668 137.849 2.669 137.163 2.669 C125.952 2.68 114.741 2.684 103.531 2.685 C93.793 2.686 84.056 2.695 74.319 2.709 C68.762 2.717 63.204 2.722 57.647 2.718 C52.598 2.715 47.55 2.72 42.501 2.734 C40.68 2.737 38.858 2.736 37.036 2.732 C34.573 2.727 32.111 2.735 29.649 2.745 C29.294 2.743 29.294 2.743 27.497 2.732 C23.583 2.764 20.426 3.031 17 5 C14.916 7.919 14.749 10.427 14.745 13.953 C14.742 14.456 14.742 14.456 14.727 16.999 C14.731 18.104 14.735 19.208 14.738 20.346 C14.734 21.524 14.73 22.702 14.726 23.916 C14.717 27.201 14.717 30.486 14.721 33.772 C14.722 37.34 14.712 40.908 14.704 44.476 C14.691 50.735 14.685 56.994 14.684 63.253 C14.683 72.559 14.67 81.866 14.655 91.173 C14.63 106.826 14.614 122.48 14.603 138.134 C14.593 153.638 14.578 169.142 14.558 184.646 C14.557 185.128 14.557 185.128 14.554 187.565 C14.548 192.456 14.541 197.348 14.535 202.24 C14.489 236.906 14.453 271.572 14.422 306.238 C14.392 339.92 14.357 373.602 14.317 407.284 C14.317 407.803 14.317 407.803 14.314 410.429 C14.301 420.851 14.289 431.273 14.276 441.695 C14.251 462.928 14.226 484.16 14.201 505.392 C14.2 506.368 14.199 507.344 14.198 508.35 C14.122 573.567 14.06 638.783 14 704 C9.38 704 4.76 704 0 704 C0 471.68 0 239.36 0 0 Z " fill="#404042" transform="translate(0,0)"/>
<path d="M0 0 C2 0 2 0 3.5 1.438 C3.995 1.953 4.49 2.469 5 3 C5.33 3.165 5.33 3.165 7 4 C7 4.66 7 5.32 7 6 C7.382 6.134 7.382 6.134 9.312 6.812 C11.923 7.966 13.074 8.986 15 11 C15.99 11.33 16.98 11.66 18 12 C18.33 12.66 18.66 13.32 19 14 C19.99 14.454 20.98 14.908 22 15.375 C25 17 25 17 25.875 19.188 C25.916 19.786 25.957 20.384 26 21 C26.66 21 27.32 21 28 21 C28 21.66 28 22.32 28 23 C28.866 23.227 29.732 23.454 30.625 23.688 C34.666 25.259 36.872 27.021 40 30 C40 30.66 40 31.32 40 32 C40.66 32 41.32 32 42 32 C42 32.66 42 33.32 42 34 C42.566 34.259 43.132 34.518 43.715 34.785 C46.227 36.121 48.327 37.679 50.562 39.438 C50.945 39.736 50.945 39.736 52.879 41.246 C54.7 42.752 56.368 44.295 58 46 C57.553 46.375 57.105 46.75 56.645 47.137 C53.904 49.457 51.228 51.772 48.688 54.312 C46.171 56.829 43.613 59.272 41 61.688 C40.175 62.454 39.35 63.221 38.5 64.012 C36 66 36 66 33.25 67.082 C32.879 67.233 32.879 67.233 31 68 C30.67 68.99 30.34 69.98 30 71 C27.734 72.91 27.734 72.91 24.75 75.062 C23.658 75.858 22.567 76.655 21.477 77.453 C20.907 77.868 20.338 78.282 19.751 78.709 C16.836 80.858 13.983 83.088 11.125 85.312 C-0.039 94 -0.039 94 -3 94 C-3 85.42 -3 76.84 -3 68 C-27.09 68 -51.18 68 -76 68 C-76 68.66 -76 69.32 -76 70 C-76.534 70.161 -77.067 70.322 -77.617 70.488 C-87.97 74.267 -93.703 82.73 -99 92 C-104.61 92 -110.22 92 -116 92 C-114.934 86.669 -113.838 85.179 -110.375 81.188 C-109.922 80.662 -109.469 80.136 -109.002 79.595 C-107.675 78.058 -106.338 76.529 -105 75 C-104.361 74.237 -103.721 73.474 -103.062 72.688 C-96.605 65.034 -90.853 59.516 -81 57 C-80.486 56.831 -80.486 56.831 -77.883 55.976 C-73.725 54.791 -69.795 54.732 -65.494 54.773 C-65.084 54.773 -65.084 54.773 -63.009 54.772 C-60.319 54.773 -57.631 54.789 -54.941 54.805 C-53.068 54.808 -51.195 54.811 -49.322 54.813 C-44.408 54.821 -39.494 54.841 -34.58 54.863 C-29.559 54.883 -24.538 54.892 -19.518 54.902 C-9.678 54.924 0.161 54.958 10 55 C10 59.29 10 63.58 10 68 C15 65 15 65 16 63 C16.626 62.693 17.253 62.386 17.898 62.07 C20.178 60.909 21.095 59.893 22.625 57.875 C26.463 53.176 31.194 49.657 36 46 C34.745 42.236 33.306 41.95 30 40 C30 39.34 30 38.68 30 38 C29.402 37.752 28.804 37.505 28.188 37.25 C26 36 26 36 24.688 34.062 C22.244 31.076 19.588 30.354 16 29 C16 28.34 16 27.68 16 27 C14.35 26.34 12.7 25.68 11 25 C11 28.96 11 32.92 11 37 C9.777 37.006 8.555 37.012 7.295 37.018 C-4.24 37.075 -15.775 37.148 -27.309 37.236 C-33.239 37.28 -39.169 37.32 -45.099 37.346 C-50.825 37.372 -56.55 37.413 -62.275 37.463 C-64.457 37.48 -66.638 37.491 -68.82 37.498 C-71.881 37.507 -74.942 37.535 -78.004 37.568 C-78.901 37.566 -79.798 37.565 -80.722 37.563 C-91.96 37.73 -98.806 42.545 -106.53 50.415 C-109.779 53.919 -112.585 57.749 -115.418 61.59 C-118.652 65.942 -122.221 70 -125.803 74.068 C-128.295 76.92 -130.586 79.789 -132.73 82.914 C-133.479 83.932 -134.228 84.951 -135 86 C-135.66 86 -136.32 86 -137 86 C-137.206 86.66 -137.412 87.32 -137.625 88 C-139 91 -139 91 -145 99 C-117.94 99 -90.88 99 -63 99 C-62.67 97.68 -62.34 96.36 -62 95 C-57.392 89.403 -52.148 83.679 -44.691 82.695 C-38.443 82.372 -34.257 83.741 -29 87 C-27.948 87.557 -26.896 88.114 -25.812 88.688 C-21.305 92.394 -18.58 96.734 -17.551 102.527 C-17.28 108.584 -18.758 112.944 -22 118 C-22.536 118.887 -23.072 119.774 -23.625 120.688 C-28.534 125.467 -34.362 128.282 -41.25 128.5 C-48.278 128.093 -52.348 125.141 -57 120 C-61 115.459 -61 115.459 -61 112 C-94 112 -127 112 -161 112 C-161.66 113.65 -162.32 115.3 -163 117 C-165.271 121.78 -168.528 124.358 -173 127 C-179.301 129.1 -186.615 128.921 -192.812 126.5 C-198.378 123.671 -203.016 118.951 -205 113 C-205.504 105.822 -205.959 99.185 -202 93 C-196.201 86.766 -191.171 84.013 -182.625 83.625 C-176.444 83.759 -171.792 85.285 -167.316 89.637 C-166.799 90.19 -166.283 90.743 -165.75 91.312 C-165.296 91.756 -165.296 91.756 -163 94 C-160.389 93.85 -159.275 93.259 -157.372 91.469 C-156.851 90.819 -156.33 90.169 -155.793 89.5 C-155.501 89.141 -155.501 89.141 -154.026 87.325 C-153.419 86.558 -152.813 85.79 -152.188 85 C-151.559 84.221 -150.931 83.442 -150.284 82.64 C-146.681 78.159 -143.12 73.645 -139.621 69.082 C-136.977 65.686 -134.22 62.382 -131.48 59.062 C-129.64 56.79 -127.834 54.505 -126.051 52.188 C-125.554 51.544 -125.058 50.901 -124.546 50.239 C-123.569 48.97 -122.596 47.697 -121.63 46.419 C-120.466 44.91 -119.238 43.45 -118 42 C-117.34 42 -116.68 42 -116 42 C-115.876 41.711 -115.876 41.711 -115.25 40.25 C-113.817 37.671 -112.216 35.939 -110 34 C-109.34 34 -108.68 34 -108 34 C-108 33.34 -108 32.68 -108 32 C-106.531 30.781 -106.531 30.781 -104.5 29.5 C-104.175 29.289 -104.175 29.289 -102.531 28.219 C-96.386 25.26 -89.982 24.653 -83.27 24.41 C-82.388 24.373 -81.507 24.337 -80.6 24.299 C-66.111 23.751 -51.605 23.646 -37.109 23.468 C-33.025 23.417 -28.941 23.361 -24.857 23.307 C-16.905 23.2 -8.953 23.099 -1 23 C-1.005 22.339 -1.01 21.678 -1.016 20.996 C-1.037 18.018 -1.05 15.04 -1.062 12.062 C-1.071 11.022 -1.079 9.981 -1.088 8.908 C-1.091 7.919 -1.094 6.929 -1.098 5.91 C-1.103 4.994 -1.108 4.077 -1.114 3.133 C-1 1 -1 1 0 0 Z " fill="#3A7DAD" transform="translate(250,269)"/>
<path d="M0 0 C0.33 0 0.66 0 1 0 C1 231.66 1 463.32 1 702 C-363.32 702 -727.64 702 -1103 702 C-1103 700.68 -1103 699.36 -1103 698 C-739.01 698 -375.02 698 0 698 C0 467.66 0 237.32 0 0 Z " fill="#D5D9E0" transform="translate(1117,2)"/>
<path d="M0 0 C0.353 0.002 0.353 0.002 2.141 0.014 C3.885 0.025 5.63 0.043 7.375 0.062 C7.375 3.062 7.375 3.062 6.156 4.387 C5.568 4.94 4.981 5.493 4.375 6.062 C2.854 7.984 1.357 9.924 -0.125 11.875 C-1.02 13.049 -1.916 14.222 -2.812 15.395 C-3.275 16 -3.738 16.605 -4.215 17.229 C-6.944 20.777 -9.721 24.287 -12.498 27.799 C-14.856 30.787 -17.186 33.792 -19.473 36.836 C-19.929 37.441 -20.385 38.045 -20.855 38.668 C-21.727 39.825 -22.593 40.987 -23.453 42.152 C-24.464 43.492 -25.539 44.783 -26.625 46.062 C-27.285 46.062 -27.945 46.062 -28.625 46.062 C-28.914 46.661 -29.203 47.259 -29.5 47.875 C-30.625 50.062 -30.625 50.062 -32.625 53.062 C-32.304 55.697 -31.811 57.69 -30.625 60.062 C-9.505 60.062 11.615 60.062 33.375 60.062 C33.375 59.403 33.375 58.743 33.375 58.062 C34.613 57.609 35.85 57.155 37.125 56.688 C45.017 53.69 45.017 53.69 46.375 51.312 C46.705 50.57 47.035 49.827 47.375 49.062 C47.695 48.598 47.695 48.598 49.312 46.25 C54.349 38.466 55.298 31.198 56.375 22.062 C53.998 22.15 51.625 22.257 49.25 22.375 C48.585 22.398 47.92 22.42 47.234 22.443 C41.718 22.741 37.607 24.003 33.512 27.781 C33.033 28.369 32.555 28.957 32.062 29.562 C31.817 29.856 31.817 29.856 30.574 31.344 C29.375 33.062 29.375 33.062 28.375 36.062 C23.095 36.062 17.815 36.062 12.375 36.062 C13.556 30.159 15.936 26.864 19.375 22.062 C19.952 21.196 20.53 20.33 21.125 19.438 C25.756 14.549 32.048 9.331 38.975 8.901 C42.338 8.856 45.7 8.827 49.062 8.812 C50.222 8.792 51.382 8.771 52.576 8.75 C59.252 8.72 64.309 9.22 70.375 12.062 C71.038 25.353 69.598 36.44 65.375 49.062 C64.715 49.062 64.055 49.062 63.375 49.062 C63.189 49.722 63.004 50.382 62.812 51.062 C57.605 61.93 46.447 70.034 35.375 74.062 C30.149 74.821 25.025 74.769 19.766 74.648 C18.303 74.637 16.84 74.629 15.378 74.623 C11.57 74.6 7.763 74.541 3.956 74.474 C0.054 74.413 -3.848 74.386 -7.75 74.355 C-15.376 74.292 -23 74.189 -30.625 74.062 C-30.625 75.053 -30.625 76.043 -30.625 77.062 C-31.285 77.062 -31.945 77.062 -32.625 77.062 C-32.852 77.805 -33.079 78.548 -33.312 79.312 C-34.906 82.651 -36.608 83.958 -39.625 86.062 C-40.355 86.585 -41.084 87.107 -41.836 87.645 C-47.34 90.443 -53.645 89.855 -59.625 89.062 C-64.432 86.875 -67.753 83.456 -70.625 79.062 C-70.625 78.072 -70.625 77.082 -70.625 76.062 C-71.615 75.733 -72.605 75.403 -73.625 75.062 C-74.377 58.841 -74.377 58.841 -69.625 53.062 C-67.188 50.812 -67.188 50.812 -64.625 49.062 C-63.895 48.531 -63.166 48 -62.414 47.453 C-58.871 45.687 -56.374 45.932 -52.438 46.062 C-48.196 45.979 -45.232 45.502 -41.703 42.945 C-39.112 40.105 -36.845 37.2 -34.625 34.062 C-34.289 33.608 -34.289 33.608 -32.59 31.309 C-31.274 29.512 -29.975 27.703 -28.691 25.883 C-26.44 22.81 -24.03 19.899 -21.562 17 C-17.735 12.483 -14.272 7.858 -11 2.926 C-8.161 -0.921 -4.361 -0.052 0 0 Z " fill="#12264D" transform="translate(119.625,386.9375)"/>
<path d="M0 0 C0 3.96 0 7.92 0 12 C-3.96 12.66 -7.92 13.32 -12 14 C-12 16.64 -12 19.28 -12 22 C-5.4 22 1.2 22 8 22 C8 18.7 8 15.4 8 12 C9.085 7.226 12.252 4.014 16 1 C19.56 -0.187 22.438 -0.097 26.188 -0.062 C27.46 -0.053 28.732 -0.044 30.043 -0.035 C30.531 -0.029 30.531 -0.029 33 0 C33 4.29 33 8.58 33 13 C31.02 13.165 31.02 13.165 21 14 C21 16.64 21 19.28 21 22 C24.63 22 28.26 22 32 22 C32 25.63 32 29.26 32 33 C28.04 33 24.08 33 20 33 C20 45.87 20 58.74 20 72 C16.04 72 12.08 72 8 72 C8 59.13 8 46.26 8 33 C1.07 33 -5.86 33 -13 33 C-13 45.87 -13 58.74 -13 72 C-16.96 72 -20.92 72 -25 72 C-25 59.13 -25 46.26 -25 33 C-27.97 33 -30.94 33 -34 33 C-34 29.37 -34 25.74 -34 22 C-31.03 22 -28.06 22 -25 22 C-25.021 21.071 -25.041 20.141 -25.062 19.184 C-24.898 9.346 -24.898 9.346 -22.363 5.547 C-15.509 -0.668 -8.812 -0.119 0 0 Z " fill="#0C1D36" transform="translate(421,322)"/>
<path d="M0 0 C0 0.66 0 1.32 0 2 C0.66 2 1.32 2 2 2 C10 10.615 10 10.615 10 16 C10.66 16 11.32 16 12 16 C12.927 26.773 12.179 34.279 5 43 C4.34 43 3.68 43 3 43 C2.67 43.99 2.34 44.98 2 46 C1.175 46.165 1.175 46.165 -3 47 C-3 47.66 -3 48.32 -3 49 C-6.902 51.601 -10.226 51.331 -14.75 51.312 C-15.536 51.329 -16.323 51.345 -17.133 51.361 C-23.556 51.367 -28.571 50.299 -33.398 45.73 C-34.051 44.891 -34.703 44.052 -35.375 43.188 C-36.043 42.356 -36.71 41.525 -37.398 40.668 C-39.168 37.721 -39.653 35.396 -40 32 C-40.66 32 -41.32 32 -42 32 C-42.109 29.311 -42.188 26.627 -42.25 23.938 C-42.284 23.185 -42.317 22.433 -42.352 21.658 C-42.468 14.928 -40.625 11.036 -36.176 5.891 C-26.734 -2.423 -11.762 -5.722 0 0 Z " fill="#14253E" transform="translate(498,346)"/>
<path d="M0 0 C0.407 0.001 0.407 0.001 2.47 0.007 C3.39 0.007 4.311 0.007 5.26 0.007 C6.261 0.012 7.262 0.017 8.294 0.023 C9.313 0.024 10.333 0.025 11.383 0.027 C14.654 0.033 17.925 0.045 21.196 0.058 C23.407 0.063 25.619 0.067 27.831 0.071 C33.265 0.082 38.699 0.1 44.133 0.12 C44.133 4.08 44.133 8.04 44.133 12.12 C33.243 12.12 22.353 12.12 11.133 12.12 C11.133 17.73 11.133 23.34 11.133 29.12 C21.363 29.12 31.593 29.12 42.133 29.12 C42.133 33.41 42.133 37.7 42.133 42.12 C31.903 42.12 21.673 42.12 11.133 42.12 C11.133 47.73 11.133 53.34 11.133 59.12 C22.023 59.12 32.913 59.12 44.133 59.12 C44.133 63.41 44.133 67.7 44.133 72.12 C28.623 72.12 13.113 72.12 -2.867 72.12 C-2.907 54.441 -2.907 54.441 -2.915 46.931 C-2.921 41.797 -2.929 36.664 -2.942 31.53 C-2.953 27.393 -2.959 23.257 -2.961 19.12 C-2.963 17.538 -2.967 15.957 -2.972 14.375 C-2.98 12.167 -2.981 9.959 -2.98 7.751 C-2.982 6.492 -2.985 5.233 -2.987 3.936 C-2.827 0.182 -2.827 0.182 0 0 Z " fill="#17263E" transform="translate(338.86659240722656,322.87974548339844)"/>
<path d="M0 0 C2.031 1.406 2.031 1.406 3.688 2.75 C4.451 3.327 5.214 3.905 6 4.5 C12.397 13.029 12.391 21.484 11.688 31.75 C11.357 32.74 11.028 33.73 10.688 34.75 C10.028 34.75 9.367 34.75 8.688 34.75 C8.461 35.472 8.234 36.194 8 36.938 C6.408 40.349 4.537 42.308 1.688 44.75 C0.363 45.118 -0.969 45.462 -2.312 45.75 C-2.643 46.74 -2.972 47.73 -3.312 48.75 C-11.461 50.561 -20.062 51.207 -27.496 47.016 C-34.58 42.08 -37.592 36.956 -40.312 28.75 C-41.224 22.11 -40.596 16.029 -38.312 9.75 C-37.653 9.75 -36.992 9.75 -36.312 9.75 C-36.106 9.028 -35.9 8.306 -35.688 7.562 C-33.502 3.091 -30.196 0.534 -25.629 -1.367 C-17.673 -3.485 -7.382 -3.999 0 0 Z " fill="#1B2A43" transform="translate(890.3125,348.25)"/>
<path d="M0 0 C5.602 3.249 10.465 6.322 14.125 11.812 C15.125 15.812 15.125 15.812 15.125 28.812 C2.915 28.812 -9.295 28.812 -21.875 28.812 C-19.516 35.89 -19.516 35.89 -14.875 38.906 C-10.074 41.082 -4.854 40.057 0.125 38.812 C0.125 38.153 0.125 37.493 0.125 36.812 C2.599 35.575 3.84 35.857 6.562 36.188 C7.345 36.278 8.127 36.368 8.934 36.461 C11.125 36.812 11.125 36.812 14.125 37.812 C13.552 41.682 11.735 43.965 9.125 46.812 C8.465 46.812 7.805 46.812 7.125 46.812 C6.795 47.803 6.465 48.793 6.125 49.812 C-1.048 52.972 -9.106 52.492 -16.688 51.125 C-22.3 48.814 -27.435 46.635 -29.875 40.812 C-30.535 40.812 -31.195 40.812 -31.875 40.812 C-35.33 32.32 -36.679 23.19 -33.625 14.312 C-31.987 11.036 -30.422 8.442 -27.875 5.812 C-27.215 5.812 -26.555 5.812 -25.875 5.812 C-25.545 4.822 -25.215 3.832 -24.875 2.812 C-23.552 2.44 -22.218 2.106 -20.875 1.812 C-20.545 1.152 -20.215 0.493 -19.875 -0.188 C-13.918 -2.173 -5.9 -2.384 0 0 Z " fill="#14243C" transform="translate(651.875,345.1875)"/>
<path d="M0 0 C2.97 0 5.94 0 9 0 C13.268 11.459 17.162 23.094 20 35 C20.66 35 21.32 35 22 35 C22.107 34.353 22.214 33.706 22.324 33.039 C23.211 29.049 24.501 25.243 25.812 21.375 C25.946 20.977 25.946 20.977 26.624 18.965 C32.544 1.456 32.544 1.456 34 0 C36.671 -0.141 39.324 -0.042 42 0 C42.973 3.15 43.943 6.301 44.91 9.453 C45.58 11.632 46.253 13.809 46.934 15.984 C47.203 16.856 47.472 17.727 47.75 18.625 C47.992 19.401 48.235 20.177 48.484 20.977 C49 23 49 23 49 26 C49.66 26 50.32 26 51 26 C51.66 29.63 52.32 33.26 53 37 C53.66 37 54.32 37 55 37 C55 36.34 55 35.68 55 35 C55.66 35 56.32 35 57 35 C57.103 33.948 57.206 32.896 57.312 31.812 C58.612 21.835 60.571 7.429 68 0 C70.671 -0.141 73.324 -0.042 76 0 C75.634 3.656 74.94 6.112 73.188 9.375 C70.716 14.023 69.639 18.971 68.437 24.053 C67.069 29.827 65.667 35.665 63 41 C62.34 41 61.68 41 61 41 C60.856 42.093 60.711 43.186 60.562 44.312 C60 48 60 48 59 51 C56.03 51 53.06 51 50 51 C49.809 50.396 49.618 49.793 49.421 49.171 C48.532 46.364 47.641 43.557 46.75 40.75 C46.432 39.745 46.113 38.739 45.785 37.704 C43.819 31.517 41.798 25.36 39.629 19.242 C39 17 39 17 39 13 C38.01 13 37.02 13 36 13 C36.055 14.022 36.111 15.044 36.168 16.098 C35.988 20.284 35.103 22.681 33.312 26.438 C29.837 34.106 27.368 41.931 25 50 C24.359 50.02 24.359 50.02 21.113 50.121 C20.392 50.144 19.67 50.166 18.927 50.189 C17 50 17 50 15.188 48.062 C13.984 44.959 12.877 41.856 11.871 38.684 C10.882 35.636 9.787 32.635 8.688 29.625 C6.572 23.723 4.594 17.785 2.688 11.812 C2.421 10.986 2.154 10.16 1.88 9.309 C1.634 8.533 1.389 7.757 1.137 6.957 C0.917 6.266 0.698 5.575 0.471 4.863 C0 3 0 3 0 0 Z " fill="#182840" transform="translate(907,346)"/>
<path d="M0 0 C2.429 2.073 4.46 4.192 6 7 C6 8.32 6 9.64 6 11 C-0.317 14.037 -0.317 14.037 -3.312 13.875 C-5 13 -5 13 -7 10 C-7.99 9.67 -8.98 9.34 -10 9 C-10 8.34 -10 7.68 -10 7 C-13.3 7.33 -16.6 7.66 -20 8 C-20.8 11.287 -21.097 12.71 -20 16 C-19.488 16.055 -19.488 16.055 -16.895 16.332 C-15.534 16.492 -14.173 16.652 -12.812 16.812 C-12.139 16.883 -11.465 16.953 -10.771 17.025 C-3.547 17.906 0.73 21.329 6 26 C7.358 28.717 7.132 30.908 7.125 33.938 C7.126 34.468 7.126 34.468 7.133 37.152 C7 40 7 40 6 43 C4.339 43.681 2.672 44.347 1 45 C0.34 45.99 -0.32 46.98 -1 48 C-5.171 49.314 -9.535 49.218 -13.875 49.25 C-14.557 49.271 -15.239 49.291 -15.941 49.312 C-23.204 49.368 -28.583 46.953 -34 42 C-36.29 38.565 -36.178 37.015 -36 33 C-32.123 31.807 -29.084 31 -25 31 C-23.902 32.531 -23.902 32.531 -22.938 34.5 C-21.695 36.434 -21.695 36.434 -20 38 C-16.261 38.742 -12.747 38.682 -9 38 C-7 36 -7 36 -6.875 32.875 C-6.916 31.926 -6.957 30.978 -7 30 C-7.834 29.902 -8.668 29.804 -9.527 29.703 C-25.508 27.58 -25.508 27.58 -31.5 21.438 C-34.382 16.753 -34.528 12.355 -34 7 C-32.383 3.282 -30.526 1.001 -27 -1 C-18.171 -3.892 -8.403 -4.578 0 0 Z " fill="#182840" transform="translate(758,348)"/>
<path d="M0 0 C1.205 -0.014 2.411 -0.028 3.652 -0.043 C6.923 0.178 9.131 0.78 12.062 2.188 C12.062 2.848 12.062 3.507 12.062 4.188 C12.64 4.414 13.217 4.641 13.812 4.875 C16.701 6.56 18.214 8.414 20.062 11.188 C20.062 12.507 20.062 13.827 20.062 15.188 C16.267 16.974 13.256 17.826 9.062 17.188 C8.65 16.383 8.237 15.579 7.812 14.75 C6.062 12.188 6.062 12.188 3.73 11.598 C-3.291 10.864 -3.291 10.864 -5.938 12.188 C-6.125 15.062 -6.125 15.062 -5.938 18.188 C-2.539 20.453 -0.123 20.839 3.875 21.562 C11.844 23.204 16.419 25.241 21.062 32.188 C21.453 35.52 21.453 35.52 21.312 39 C21.276 40.161 21.24 41.323 21.203 42.52 C21.157 43.4 21.11 44.28 21.062 45.188 C20.072 45.517 19.082 45.847 18.062 46.188 C17.279 46.992 16.495 47.796 15.688 48.625 C10.809 53.387 6.115 53.528 -0.375 53.5 C-1.113 53.516 -1.851 53.532 -2.611 53.549 C-8.789 53.554 -13.318 51.713 -18.25 47.938 C-21.462 44.651 -21.761 42.701 -21.938 38.188 C-17.802 36.612 -14.354 35.436 -9.938 36.188 C-8.778 37.733 -7.621 39.28 -6.492 40.848 C-3.756 43.206 -0.692 42.669 2.758 42.496 C5.062 42.188 5.062 42.188 8.062 41.188 C8 38.875 8 38.875 7.062 36.188 C2.462 33.611 -1.665 32.726 -6.938 32.188 C-6.938 31.527 -6.938 30.868 -6.938 30.188 C-7.639 29.919 -8.34 29.651 -9.062 29.375 C-12.127 28.109 -15.053 26.826 -17.938 25.188 C-18.991 22.027 -19.138 19.632 -19.188 16.312 C-19.213 15.284 -19.239 14.255 -19.266 13.195 C-18.761 8.572 -16.863 6.042 -13.5 2.938 C-9.119 -0.054 -5.25 0.028 0 0 Z " fill="#192940" transform="translate(694.9375,343.8125)"/>
<path d="M0 0 C4.62 0 9.24 0 14 0 C14 4.29 14 8.58 14 13 C17.63 13 21.26 13 25 13 C25 16.63 25 20.26 25 24 C21.37 24 17.74 24 14 24 C14.06 28.106 14.147 32.208 14.25 36.312 C14.257 36.896 14.257 36.896 14.293 39.85 C14.325 40.968 14.357 42.086 14.391 43.238 C14.412 44.27 14.433 45.302 14.454 46.365 C15 49 15 49 16.904 50.828 C20.235 52.691 23.222 52.685 27 53 C27.027 54.812 27.046 56.625 27.062 58.438 C27.074 59.447 27.086 60.456 27.098 61.496 C27 64 27 64 26 65 C18.396 65.633 10.473 65.762 4.328 60.594 C2.39 58.268 2.327 55.947 2 53 C1.34 53 0.68 53 0 53 C0 43.76 0 34.52 0 25 C-2.64 25 -5.28 25 -8 25 C-8 21.37 -8 17.74 -8 14 C-5.69 13.34 -3.38 12.68 -1 12 C-0.67 8.04 -0.34 4.08 0 0 Z " fill="#15263D" transform="translate(560,332)"/>
<path d="M0 0 C14.85 0 29.7 0 45 0 C45 2.64 45 5.28 45 8 C33.12 8 21.24 8 9 8 C9 15.92 9 23.84 9 32 C19.89 32 30.78 32 42 32 C42 34.31 42 36.62 42 39 C31.11 39 20.22 39 9 39 C9 49.56 9 60.12 9 71 C6.36 71 3.72 71 1 71 C0 70 0 70 -0.12 67.222 C-0.118 65.981 -0.116 64.74 -0.114 63.461 C-0.114 62.778 -0.114 62.095 -0.114 61.391 C-0.113 59.124 -0.105 56.857 -0.098 54.59 C-0.096 53.022 -0.094 51.454 -0.093 49.886 C-0.09 45.751 -0.08 41.617 -0.069 37.482 C-0.057 32.525 -0.052 27.568 -0.046 22.612 C-0.037 15.074 -0.017 7.537 0 0 Z " fill="#1C2B43" transform="translate(775,326)"/>
<path d="M0 0 C3.625 5.074 4.918 9.936 4.738 16.117 C3.704 21.695 0.532 26.737 -3.703 30.473 C-7.296 32.715 -10.574 32.906 -14.75 32.938 C-15.173 32.945 -15.173 32.945 -17.312 32.98 C-21.615 32.574 -23.439 31.083 -26.375 27.938 C-31.496 21.065 -31.827 14.126 -30.75 5.75 C-28.806 1.251 -26.28 -1.416 -22 -3.75 C-13.77 -5.016 -6.983 -4.988 0 0 Z " fill="#F0F2F7" transform="translate(889.75,357.25)"/>
<path d="M0 0 C4.62 0 9.24 0 14 0 C14 24.09 14 48.18 14 73 C9.71 73 5.42 73 1 73 C0 72 0 72 -0.12 69.146 C-0.118 67.869 -0.116 66.593 -0.114 65.277 C-0.114 64.575 -0.114 63.872 -0.114 63.149 C-0.113 60.816 -0.105 58.484 -0.098 56.152 C-0.096 54.54 -0.094 52.927 -0.093 51.314 C-0.09 47.061 -0.08 42.808 -0.069 38.555 C-0.058 34.218 -0.054 29.882 -0.049 25.545 C-0.038 17.03 -0.02 8.515 0 0 Z " fill="#1B2B41" transform="translate(594,324)"/>
<path d="M0 0 C4.29 0 8.58 0 13 0 C13.66 1.65 14.32 3.3 15 5 C15.969 4.175 16.939 3.35 17.938 2.5 C22.325 -0.692 25.702 -0.408 31 0 C31 4.29 31 8.58 31 13 C29.763 13.098 29.763 13.098 23.578 13.586 C20.891 14.018 19.221 14.426 17 16 C14.908 20.092 14.698 23.715 14.586 28.27 C14.567 28.951 14.547 29.632 14.527 30.333 C14.468 32.493 14.421 34.653 14.375 36.812 C14.337 38.283 14.298 39.754 14.258 41.225 C14.161 44.816 14.081 48.408 14 52 C9.38 52 4.76 52 0 52 C0 34.84 0 17.68 0 0 Z " fill="#0D1E36" transform="translate(518,344)"/>
<path d="M0 0 C4.509 2.338 7.857 4.988 9.688 9.812 C10.571 16 10.23 21.567 7 27 C2.382 30.519 -2.417 30.528 -8 30 C-11.814 29.289 -13.46 27.978 -16 25 C-17.058 21.825 -17.167 19.46 -17.188 16.125 C-17.202 15.096 -17.216 14.068 -17.23 13.008 C-16.867 8.262 -15.637 5.699 -12.438 2.188 C-8.57 -0.8 -4.694 -0.917 0 0 Z " fill="#EAECF1" transform="translate(487,355)"/>
<path d="M0 0 C2.97 0 5.94 0 9 0 C9.023 9.24 9.041 18.48 9.052 27.72 C9.057 32.01 9.064 36.3 9.075 40.59 C9.086 44.727 9.092 48.863 9.095 53 C9.097 54.582 9.1 56.164 9.106 57.745 C9.113 59.953 9.114 62.161 9.114 64.369 C9.116 65.628 9.118 66.887 9.12 68.184 C9 71 9 71 8 72 C5.36 72 2.72 72 0 72 C0 48.24 0 24.48 0 0 Z " fill="#26374F" transform="translate(830,325)"/>
<path d="M0 0 C1.65 0 3.3 0 5 0 C7.312 3 7.312 3 9 6 C8.01 5.67 7.02 5.34 6 5 C6 4.34 6 3.68 6 3 C5.34 3.33 4.68 3.66 4 4 C3.67 11.26 3.34 18.52 3 26 C0.034 27.483 -2.656 27.158 -5.966 27.189 C-6.324 27.194 -6.324 27.194 -8.14 27.215 C-9.702 27.232 -11.265 27.247 -12.828 27.26 C-15.315 27.281 -17.802 27.308 -20.288 27.337 C-25.588 27.397 -30.888 27.449 -36.188 27.5 C-42.288 27.56 -48.388 27.622 -54.489 27.692 C-56.914 27.718 -59.339 27.739 -61.764 27.76 C-71.211 27.856 -80.581 28.257 -90 29 C-89.67 28.34 -89.34 27.68 -89 27 C-83.446 25.258 -78.446 24.716 -72.656 24.773 C-72.261 24.773 -72.261 24.773 -70.259 24.772 C-67.672 24.773 -65.086 24.789 -62.5 24.805 C-60.695 24.808 -58.891 24.811 -57.086 24.813 C-52.358 24.821 -47.63 24.84 -42.902 24.863 C-38.069 24.883 -33.236 24.892 -28.402 24.902 C-18.935 24.924 -9.467 24.959 0 25 C0 16.75 0 8.5 0 0 Z " fill="#9BD1E4" transform="translate(246,266)"/>
<path d="M0 0 C4.632 2.265 4.632 2.265 6 5 C6.375 8.312 6.375 8.312 6 12 C3.562 14.875 3.562 14.875 1 17 C0.67 17.33 0.34 17.66 0 18 C-2.75 18.375 -2.75 18.375 -6 18 C-8.812 15.562 -8.812 15.562 -11 13 C-11.33 12.67 -11.66 12.34 -12 12 C-12.438 8.75 -12.438 8.75 -12 5 C-8.293 0.851 -5.581 -0.95 0 0 Z " fill="#F3F4F6" transform="translate(70,366)"/>
<path d="M0 0 C0.99 0.33 1.98 0.66 3 1 C2.34 1.33 1.68 1.66 1 2 C1 5.96 1 9.92 1 14 C-15.665 14.165 -15.665 14.165 -100 15 C-99.67 14.34 -99.34 13.68 -99 13 C-94.427 11.61 -89.588 11.776 -84.848 11.684 C-84.391 11.673 -84.391 11.673 -82.083 11.62 C-79.076 11.554 -76.069 11.495 -73.062 11.438 C-72.549 11.427 -72.549 11.427 -69.953 11.373 C-46.969 10.903 -23.988 10.895 -1 11 C-0.67 7.37 -0.34 3.74 0 0 Z " fill="#7DC4D9" transform="translate(260,292)"/>
<path d="M0 0 C2.438 1.438 2.438 1.438 4 4 C4.487 7.068 4.624 9.949 4 13 C2.429 14.921 1.221 15.89 -1 17 C-7.173 17.457 -7.173 17.457 -10.375 15.688 C-12.79 13.18 -13.003 10.976 -13.438 7.562 C-13 4 -13 4 -10.438 1.562 C-6.529 -0.214 -4.241 -0.628 0 0 Z " fill="#EEF5F9" transform="translate(213,366)"/>
<path d="M0 0 C1.16 -0.021 2.319 -0.041 3.514 -0.062 C10.189 -0.093 15.247 0.408 21.312 3.25 C21.367 6.271 21.406 9.291 21.438 12.312 C21.454 13.16 21.471 14.008 21.488 14.881 C21.528 20.084 21.01 24.325 19.312 29.25 C18.653 29.25 17.993 29.25 17.312 29.25 C17.476 28.29 17.64 27.329 17.809 26.34 C18.453 21.826 18.423 17.364 18.375 12.812 C18.37 11.986 18.366 11.159 18.361 10.307 C18.35 8.288 18.332 6.269 18.312 4.25 C10.301 0.244 -4.191 0.956 -12.562 3.312 C-19.724 6.142 -24.801 12.042 -29.461 17.965 C-29.866 18.389 -30.27 18.813 -30.688 19.25 C-31.347 19.25 -32.007 19.25 -32.688 19.25 C-32.832 19.869 -32.976 20.488 -33.125 21.125 C-33.688 23.25 -33.688 23.25 -34.688 25.25 C-30.398 25.58 -26.107 25.91 -21.688 26.25 C-21.357 24.6 -21.028 22.95 -20.688 21.25 C-19.125 19.438 -19.125 19.438 -17.688 18.25 C-17.028 18.58 -16.368 18.91 -15.688 19.25 C-16.327 20.013 -16.966 20.776 -17.625 21.562 C-19.688 24.25 -19.688 24.25 -20.688 27.25 C-25.968 27.25 -31.248 27.25 -36.688 27.25 C-35.507 21.346 -33.126 18.052 -29.688 13.25 C-29.11 12.384 -28.532 11.517 -27.938 10.625 C-19.41 1.624 -11.902 0.052 0 0 Z " fill="#6B95CA" transform="translate(168.6875,395.75)"/>
<path d="M0 0 C1.771 -0.027 3.542 -0.046 5.312 -0.062 C6.299 -0.074 7.285 -0.086 8.301 -0.098 C11.572 0.021 13.383 0.36 15.688 2.75 C17 5 17 5 17 10 C9.41 10 1.82 10 -6 10 C-6 8.35 -6 6.7 -6 5 C-3.562 3.312 -3.562 3.312 -1 2 C-0.67 1.34 -0.34 0.68 0 0 Z " fill="#E0E3E9" transform="translate(637,355)"/>
<path d="M0 0 C4.29 0 8.58 0 13 0 C13.66 2.31 14.32 4.62 15 7 C14.34 7 13.68 7 13 7 C13 5.35 13 3.7 13 2 C9.37 2 5.74 2 2 2 C2 17.84 2 33.68 2 50 C5.63 50 9.26 50 13 50 C13 40.1 13 30.2 13 20 C13.66 19.67 14.32 19.34 15 19 C14.67 29.89 14.34 40.78 14 52 C9.38 52 4.76 52 0 52 C0 34.84 0 17.68 0 0 Z " fill="#525C6E" transform="translate(518,344)"/>
<path d="M0 0 C0.573 -0.002 0.573 -0.002 3.472 -0.014 C4.511 -0.012 5.55 -0.01 6.621 -0.008 C7.511 -0.007 8.401 -0.006 9.318 -0.004 C11.562 0.125 11.562 0.125 14.562 1.125 C15.534 5.81 15.541 9.985 15.188 14.75 C15.097 16.042 15.007 17.333 14.914 18.664 C14.648 21.288 14.315 23.612 13.562 26.125 C15.543 24.805 17.522 23.485 19.562 22.125 C20.222 22.455 20.882 22.785 21.562 23.125 C20.442 23.964 19.316 24.796 18.188 25.625 C17.561 26.089 16.935 26.553 16.289 27.031 C14.562 28.125 14.562 28.125 12.562 28.125 C12.562 19.545 12.562 10.965 12.562 2.125 C-10.868 2.125 -34.298 2.125 -58.438 2.125 C-58.438 1.795 -58.438 1.465 -58.438 1.125 C-17.699 0.029 -17.699 0.029 0 0 Z " fill="#69B5D4" transform="translate(234.4375,334.875)"/>
<path d="M0 0 C0.812 2 0.812 2 1 4 C0.67 4.66 0.34 5.32 0 6 C0.041 6.485 0.041 6.485 0.25 8.938 C0.381 15.845 -3.807 22.75 -8 28 C-8.99 27.67 -9.98 27.34 -11 27 C-10.402 26.154 -9.804 25.309 -9.188 24.438 C-4.085 16.63 -3.083 9.191 -2 0 C-4.396 0.142 -6.792 0.288 -9.188 0.438 C-9.861 0.477 -10.535 0.516 -11.229 0.557 C-14.897 0.789 -18.417 1.172 -22 2 C-20.052 -0.728 -18.946 -1.009 -15.566 -1.582 C-14.233 -1.673 -12.898 -1.75 -11.562 -1.812 C-10.894 -1.863 -10.226 -1.914 -9.537 -1.967 C-5.836 -2.183 -3.068 -2.21 0 0 Z " fill="#5D82BA" transform="translate(178,409)"/>
<path d="M0 0 C2.489 -0.159 4.918 -0.138 7.41 -0.05 C7.862 -0.045 7.862 -0.045 10.151 -0.024 C13.035 0.01 15.917 0.085 18.801 0.161 C20.758 0.191 22.715 0.219 24.672 0.243 C29.466 0.309 34.258 0.413 39.051 0.536 C38.061 0.866 37.071 1.196 36.051 1.536 C36.051 2.196 36.051 2.856 36.051 3.536 C36.711 3.536 37.371 3.536 38.051 3.536 C38.051 4.856 38.051 6.176 38.051 7.536 C37.391 7.536 36.731 7.536 36.051 7.536 C36.051 6.876 36.051 6.216 36.051 5.536 C33.411 5.701 33.411 5.701 20.051 6.536 C20.051 5.876 20.051 5.216 20.051 4.536 C23.351 4.206 26.651 3.876 30.051 3.536 C30.051 2.876 30.051 2.216 30.051 1.536 C26.012 1.556 21.974 1.608 17.935 1.689 C16.563 1.712 15.191 1.726 13.818 1.732 C11.84 1.741 9.861 1.785 7.883 1.829 C6.694 1.845 5.505 1.861 4.281 1.877 C0.208 2.708 -1.311 4.412 -3.949 7.536 C-4.609 7.206 -5.269 6.876 -5.949 6.536 C-3.256 0.896 -3.256 0.896 0 0 Z " fill="#DFEDF8" transform="translate(90.9490966796875,381.46368408203125)"/>
<path d="M0 0 C0.66 0.33 1.32 0.66 2 1 C0.715 2.506 -0.578 4.005 -1.875 5.5 C-2.594 6.335 -3.314 7.171 -4.055 8.031 C-4.697 8.681 -5.339 9.331 -6 10 C-6.66 10 -7.32 10 -8 10 C-8.072 10.309 -8.072 10.309 -8.438 11.875 C-9 14 -9 14 -10 16 C-5.71 16.33 -1.42 16.66 3 17 C3.33 15.35 3.66 13.7 4 12 C5.562 10.188 5.562 10.188 7 9 C7.66 9.33 8.32 9.66 9 10 C8.361 10.763 7.721 11.526 7.062 12.312 C5 15 5 15 4 18 C-1.28 18 -6.56 18 -12 18 C-10.476 10.378 -6.508 4.403 0 0 Z " fill="#426094" transform="translate(144,405)"/>
<path d="M0 0 C0.99 0.33 1.98 0.66 3 1 C2.618 1.32 2.618 1.32 0.688 2.938 C-2.724 6.349 -4.04 10.338 -5 15 C-4.875 17.5 -4.875 17.5 -4 20 C-3.476 21.541 -2.956 23.082 -2.438 24.625 C-2.168 25.38 -1.899 26.136 -1.621 26.914 C-1 29 -1 29 -1 32 C-4.773 28.42 -6.829 26.431 -7.203 21.109 C-7.314 13.19 -7.285 7.66 -1.812 1.562 C-1.214 1.047 -0.616 0.531 0 0 Z " fill="#343E56" transform="translate(52,358)"/>
<path d="M0 0 C5 1 5 1 6.812 3.562 C7.204 4.367 7.596 5.171 8 6 C7.01 5.67 6.02 5.34 5 5 C5 4.34 5 3.68 5 3 C4.67 3.165 4.67 3.165 3 4 C2.67 11.26 2.34 18.52 2 26 C1.34 26 0.68 26 0 26 C0 17.42 0 8.84 0 0 Z " fill="#8BD6DB" transform="translate(247,266)"/>
<path d="M0 0 C1.272 0.009 2.545 0.018 3.855 0.027 C4.343 0.033 4.343 0.033 6.812 0.062 C6.812 4.353 6.812 8.642 6.812 13.062 C3.512 13.062 0.212 13.062 -3.188 13.062 C-1.188 11.062 -1.188 11.062 1.938 10.938 C2.886 10.979 3.835 11.02 4.812 11.062 C4.812 7.762 4.812 4.462 4.812 1.062 C3.083 1.205 1.354 1.352 -0.375 1.5 C-1.338 1.581 -2.301 1.662 -3.293 1.746 C-5.974 2.039 -8.554 2.49 -11.188 3.062 C-9.077 -1.159 -4.124 -0.038 0 0 Z " fill="#7A8493" transform="translate(447.1875,321.9375)"/>
<path d="M0 0 C0 3.96 0 7.92 0 12 C-3.3 12.33 -6.6 12.66 -10 13 C-8 11 -8 11 -4.875 10.875 C-3.926 10.916 -2.978 10.957 -2 11 C-2 8.03 -2 5.06 -2 2 C-6.95 2.33 -11.9 2.66 -17 3 C-16.67 2.34 -16.34 1.68 -16 1 C-10.728 -0.352 -5.402 -0.073 0 0 Z " fill="#636E81" transform="translate(421,322)"/>
<path d="M0 0 C0 0.33 0 0.66 0 1 C-0.603 1.043 -0.603 1.043 -3.656 1.262 C-18.941 2.538 -18.941 2.538 -24.453 6.824 C-26.74 8.563 -29.259 9.246 -32 10 C-22.633 -0.576 -13.375 -0.649 0 0 Z " fill="#5177B5" transform="translate(174,396)"/>
<path d="M0 0 C1.299 0.568 2.589 1.155 3.875 1.75 C4.235 1.912 4.235 1.912 6.055 2.734 C8.355 4.231 8.878 5.547 10 8 C7.757 9.988 5.507 11.965 3.25 13.938 C2.933 14.219 2.933 14.219 1.328 15.646 C0.709 16.185 0.091 16.723 -0.547 17.277 C-1.112 17.775 -1.678 18.272 -2.261 18.785 C-4.166 20.116 -5.73 20.58 -8 21 C-5.242 17.32 -2.379 14.505 1.25 11.688 C2.142 10.99 3.034 10.293 3.953 9.574 C4.629 9.055 5.304 8.535 6 8 C4.745 4.236 3.306 3.95 0 2 C0 1.34 0 0.68 0 0 Z " fill="#82D3D2" transform="translate(280,307)"/>
<path d="M0 0 C3.3 0.33 6.6 0.66 10 1 C10.027 2.812 10.046 4.625 10.062 6.438 C10.074 7.447 10.086 8.456 10.098 9.496 C10 12 10 12 9 13 C6.98 13.072 4.958 13.084 2.938 13.062 C1.833 13.053 0.728 13.044 -0.41 13.035 C-0.837 13.029 -0.837 13.029 -3 13 C-3 12.67 -3 12.34 -3 12 C0.63 12 4.26 12 8 12 C8 9.03 8 6.06 8 3 C7.526 3.031 7.526 3.031 5.125 3.188 C4.094 3.126 3.062 3.064 2 3 C1.34 2.01 0.68 1.02 0 0 Z " fill="#6C7585" transform="translate(577,384)"/>
<path d="M0 0 C0.33 0 0.66 0 1 0 C1.917 8.251 -1.923 15.642 -7 22 C-7.99 21.67 -8.98 21.34 -10 21 C-9.402 20.113 -8.804 19.226 -8.188 18.312 C-4.249 12.348 -1.615 6.997 0 0 Z " fill="#41649F" transform="translate(177,415)"/>
<path d="M0 0 C1.98 0 3.96 0 6 0 C6 0.66 6 1.32 6 2 C6.66 2 7.32 2 8 2 C8 3.32 8 4.64 8 6 C7.34 6 6.68 6 6 6 C6 5.34 6 4.68 6 4 C3.36 4.165 3.36 4.165 -10 5 C-10 4.34 -10 3.68 -10 3 C-6.7 2.67 -3.4 2.34 0 2 C0 1.34 0 0.68 0 0 Z " fill="#C8D4E2" transform="translate(121,383)"/>
<path d="M0 0 C0.66 0.33 1.32 0.66 2 1 C0.743 4.77 -1.159 6.222 -4 9 C-6.038 11.301 -8.025 13.645 -10 16 C-10.33 15.01 -10.66 14.02 -11 13 C-9.199 10.371 -9.199 10.371 -6.688 7.438 C-5.866 6.467 -5.045 5.496 -4.199 4.496 C-2.844 2.957 -1.45 1.45 0 0 Z " fill="#3C609C" transform="translate(107,343)"/>
<path d="M0 0 C4.399 1.805 5.852 4.311 8.027 8.402 C9.599 12.599 9.414 16.591 9 21 C8.34 21.33 7.68 21.66 7 22 C6.974 21.203 6.948 20.407 6.922 19.586 C6.574 13.078 6.163 9.046 2 4 C1.306 2.681 0.625 1.354 0 0 Z " fill="#7ABDDB" transform="translate(223,358)"/>
<path d="M0 0 C0.66 0.33 1.32 0.66 2 1 C1.505 1.351 1.01 1.701 0.5 2.062 C-1.836 5.08 -1.441 7.286 -1 11 C1 14.438 1 14.438 3 17 C2.01 17 1.02 17 0 17 C-2.497 14.003 -3.868 11.808 -4.5 7.938 C-3.886 4.329 -2.479 2.634 0 0 Z " fill="#263551" transform="translate(60,367)"/>
<path d="M0 0 C0.33 0 0.66 0 1 0 C1.029 3.792 1.047 7.583 1.062 11.375 C1.071 12.455 1.079 13.535 1.088 14.648 C1.091 15.68 1.094 16.711 1.098 17.773 C1.103 18.727 1.108 19.68 1.114 20.662 C1 23 1 23 0 25 C-0.66 25 -1.32 25 -2 25 C-1.847 24.04 -1.693 23.079 -1.535 22.09 C-0.893 17.594 -0.66 13.095 -0.438 8.562 C-0.394 7.736 -0.351 6.909 -0.307 6.057 C-0.202 4.038 -0.1 2.019 0 0 Z " fill="#3E6BAF" transform="translate(188,400)"/>
<path d="M0 0 C0.66 0.66 1.32 1.32 2 2 C1.381 2.052 1.381 2.052 -1.75 2.312 C-5.277 2.774 -7.589 3.203 -10 6 C-10.75 9.188 -10.75 9.188 -11 12 C-11.33 12 -11.66 12 -12 12 C-12.375 8.812 -12.375 8.812 -12 5 C-8.297 0.856 -5.59 -0.889 0 0 Z " fill="#C0C7D4" transform="translate(70,366)"/>
<path d="M0 0 C2.64 0 5.28 0 8 0 C7.465 5.348 5.533 9.358 3 14 C2.67 14 2.34 14 2 14 C2 12.35 2 10.7 2 9 C2.66 9 3.32 9 4 9 C4.144 8.402 4.289 7.804 4.438 7.188 C4.887 5.438 5.429 3.713 6 2 C5.01 1.835 5.01 1.835 0 1 C0 0.67 0 0.34 0 0 Z " fill="#4F5A6F" transform="translate(975,346)"/>
<path d="M0 0 C-1.651 4.292 -4.738 6.879 -8 10 C-8.99 9.67 -9.98 9.34 -11 9 C-9.548 7.494 -8.088 5.995 -6.625 4.5 C-6.219 4.082 -6.219 4.082 -4.164 1.969 C-2 0 -2 0 0 0 Z " fill="#CEDFF0" transform="translate(152,312)"/>
<path d="M0 0 C0.99 0.33 1.98 0.66 3 1 C2.67 1.66 2.34 2.32 2 3 C1.848 4.666 1.751 6.337 1.684 8.008 C1.642 8.994 1.6 9.98 1.557 10.996 C1.517 12.029 1.478 13.061 1.438 14.125 C1.394 15.165 1.351 16.206 1.307 17.277 C1.2 19.851 1.098 22.426 1 25 C0.67 25 0.34 25 0 25 C0 16.75 0 8.5 0 0 Z " fill="#58BAC1" transform="translate(248,267)"/>
<path d="M0 0 C0.33 0.99 0.66 1.98 1 3 C-0.098 4.152 -1.203 5.296 -2.312 6.438 C-2.927 7.076 -3.542 7.714 -4.176 8.371 C-6 10 -6 10 -9 11 C-8.67 10.01 -8.34 9.02 -8 8 C-7.34 8 -6.68 8 -6 8 C-5.752 7.423 -5.505 6.845 -5.25 6.25 C-3.833 3.7 -2.124 1.982 0 0 Z " fill="#6292D1" transform="translate(140,303)"/>
<path d="M0 0 C2.203 0.023 2.203 0.023 5.953 0.398 C5.953 0.728 5.953 1.058 5.953 1.398 C5.499 1.522 5.499 1.522 3.203 2.148 C-0.15 3.438 -1.724 4.718 -4.047 7.398 C-4.707 7.068 -5.367 6.738 -6.047 6.398 C-3.155 0.614 -3.155 0.614 0 0 Z " fill="#DCE6F0" transform="translate(91.046875,381.6015625)"/>
<path d="M0 0 C5.626 1.768 8.778 5.168 12 10 C8.013 8.633 5.115 6.848 2 4 C2 3.34 2 2.68 2 2 C1.34 2 0.68 2 0 2 C0 1.34 0 0.68 0 0 Z " fill="#85D9CB" transform="translate(290,299)"/>
<path d="M0 0 C0.66 0.33 1.32 0.66 2 1 C-3 7.571 -3 7.571 -8 9 C-7.047 7.684 -6.087 6.372 -5.125 5.062 C-4.591 4.332 -4.058 3.601 -3.508 2.848 C-2 1 -2 1 0 0 Z " fill="#2E3A53" transform="translate(90,416)"/>
<path d="M0 0 C1 2 1 2 0.25 5.062 C-0.163 6.032 -0.575 7.001 -1 8 C-1.99 8.33 -2.98 8.66 -4 9 C-4.33 6.36 -4.66 3.72 -5 1 C-4.34 2.32 -3.68 3.64 -3 5 C-2.34 5 -1.68 5 -1 5 C-0.67 3.35 -0.34 1.7 0 0 Z " fill="#667286" transform="translate(930,376)"/>
<path d="M0 0 C3.995 1.37 6.8 3.257 10 6 C9.67 6.66 9.34 7.32 9 8 C7.02 7.01 5.04 6.02 3 5 C3 4.34 3 3.68 3 3 C2.34 3 1.68 3 1 3 C0.67 2.01 0.34 1.02 0 0 Z " fill="#A4E2D8" transform="translate(275,287)"/>
<path d="M0 0 C0.99 0 1.98 0 3 0 C3.33 2.64 3.66 5.28 4 8 C3.67 7.34 3.34 6.68 3 6 C2.01 6 1.02 6 0 6 C0 4.02 0 2.04 0 0 Z " fill="#959DAC" transform="translate(943,359)"/>
<path d="M0 0 C0.625 1.875 0.625 1.875 1 4 C0.34 4.66 -0.32 5.32 -1 6 C-1.414 7.945 -1.414 7.945 -1.625 10.125 C-1.749 11.404 -1.872 12.683 -2 14 C-2.33 14 -2.66 14 -3 14 C-3.324 8.496 -3.533 4.563 0 0 Z " fill="#3E4D63" transform="translate(727,350)"/>
<path d="M0 0 C0.66 0.33 1.32 0.66 2 1 C1.783 1.196 1.783 1.196 0.688 2.188 C-1 4 -1 4 -2.562 6.625 C-4 9 -4 9 -6 10 C-4.792 5.569 -3.483 3.019 0 0 Z " fill="#48566B" transform="translate(682,346)"/>
<path d="M0 0 C0.33 0.66 0.66 1.32 1 2 C-0.125 4.562 -0.125 4.562 -2 7 C-4.688 7.812 -4.688 7.812 -7 8 C-6.021 6.854 -5.042 5.708 -4.062 4.562 C-3.517 3.924 -2.972 3.286 -2.41 2.629 C-1.632 1.73 -0.841 0.841 0 0 Z " fill="#3A4D6F" transform="translate(86,384)"/>
<path d="M0 0 C0.625 1.812 0.625 1.812 1 4 C0.67 4.495 0.67 4.495 -1 7 C-1.99 7 -2.98 7 -4 7 C-3.436 3.73 -2.5 2.174 0 0 Z " fill="#649AD0" transform="translate(191,361)"/>
<path d="M0 0 C0.99 0.33 1.98 0.66 3 1 C1.907 2.033 0.8 3.051 -0.312 4.062 C-0.927 4.631 -1.542 5.199 -2.176 5.785 C-2.778 6.186 -3.38 6.587 -4 7 C-4.99 6.67 -5.98 6.34 -7 6 C-5.907 4.967 -4.8 3.949 -3.688 2.938 C-3.073 2.369 -2.458 1.801 -1.824 1.215 C-1.523 1.014 -1.523 1.014 0 0 Z " fill="#74C8D3" transform="translate(279,321)"/>
<path d="M0 0 C1.534 3.069 0.55 5.701 0 9 C-0.66 9 -1.32 9 -2 9 C-2.33 9.66 -2.66 10.32 -3 11 C-3.393 6.551 -2.153 3.858 0 0 Z " fill="#737E8F" transform="translate(971,354)"/>
<path d="M0 0 C1.98 0 3.96 0 6 0 C4.726 2.549 3.536 2.806 1 4 C0.01 4.66 -0.98 5.32 -2 6 C-1.34 4.02 -0.68 2.04 0 0 Z " fill="#293752" transform="translate(974,347)"/>
<path d="M0 0 C0.66 0.33 1.32 0.66 2 1 C0.812 3.438 0.812 3.438 -1 6 C-3.688 6.812 -3.688 6.812 -6 7 C-4.02 4.69 -2.04 2.38 0 0 Z " fill="#A0E1DE" transform="translate(306,315)"/>
<path d="M0 0 C0 3.151 -0.279 4.418 -2 7 C-3.32 7.33 -4.64 7.66 -6 8 C-4.02 5.36 -2.04 2.72 0 0 Z " fill="#42506E" transform="translate(103,398)"/>
<path d="M0 0 C0.99 0.33 1.98 0.66 3 1 C2.01 1.825 2.01 1.825 -3 6 C-2.427 3.133 -2.139 2.139 0 0 Z " fill="#293556" transform="translate(52,358)"/>
<path d="M0 0 C0.66 0.33 1.32 0.66 2 1 C0.02 3.31 -1.96 5.62 -4 8 C-4.66 7.67 -5.32 7.34 -6 7 C-4.625 5 -4.625 5 -3 3 C-2.34 3 -1.68 3 -1 3 C-0.67 2.01 -0.34 1.02 0 0 Z " fill="#4D5A6F" transform="translate(627,348)"/>
</svg>
